<svg width="242" height="331" viewBox="0 0 242 331" fill="none" xmlns="http://www.w3.org/2000/svg">
<path d="M8.10949 309.874V316.577H9.75323C10.8594 316.577 11.4599 316.124 11.4599 314.71V311.741C11.4599 310.327 10.8594 309.874 9.75323 309.874H8.10949ZM14.9369 311.939V314.512C14.9369 317.68 13.2303 319.405 9.75323 319.405H8.10949V326.843H4.6322V307.046H9.75323C13.2303 307.046 14.9369 308.772 14.9369 311.939Z" fill="#142344"/>
<path d="M19.9308 309.874V315.955H21.29C22.586 315.955 23.3763 315.446 23.3763 313.862V311.911C23.3763 310.497 22.839 309.874 21.606 309.874H19.9308ZM23.7238 326.843C23.5345 326.334 23.4078 326.023 23.4078 324.411V321.3C23.4078 319.462 22.7126 318.783 21.1321 318.783H19.9308V326.843H16.4537V307.046H21.7012C25.3044 307.046 26.8531 308.545 26.8531 311.599V313.155C26.8531 315.191 26.1262 316.52 24.5774 317.171C26.3158 317.821 26.8849 319.32 26.8849 321.385V324.439C26.8849 325.401 26.9166 326.108 27.2641 326.843H23.7238Z" fill="#142344"/>
<path d="M32.1004 322.29C32.1004 323.704 32.7958 324.241 33.902 324.241C35.0084 324.241 35.7038 323.704 35.7038 322.29V311.6C35.7038 310.186 35.0084 309.648 33.902 309.648C32.7958 309.648 32.1004 310.186 32.1004 311.6V322.29ZM28.6231 311.797C28.6231 308.63 30.4884 306.82 33.902 306.82C37.3161 306.82 39.1809 308.63 39.1809 311.797V322.092C39.1809 325.259 37.3161 327.069 33.902 327.069C30.4884 327.069 28.6231 325.259 28.6231 322.092V311.797Z" fill="#142344"/>
<path d="M40.2238 324.015C40.603 324.043 41.0454 324.043 41.4248 324.043C42.531 324.043 43.4163 323.675 43.4163 322.148V307.046H46.8933V321.922C46.8933 325.881 44.5224 326.899 41.899 326.899C41.267 326.899 40.7928 326.899 40.2238 326.843V324.015Z" fill="#142344"/>
<path d="M52.488 315.389H57.2611V318.217H52.488V324.015H58.4939V326.843H49.011V307.046H58.4939V309.874H52.488V315.389Z" fill="#142344"/>
<path d="M59.3787 307.046H70.1261V309.874H66.4907V326.843H63.0139V309.874H59.3787V307.046Z" fill="#142344"/>
<path d="M74.5823 322.29C74.5823 323.704 75.2778 324.241 76.3844 324.241C77.4905 324.241 78.186 323.704 78.186 322.29V311.6C78.186 310.186 77.4905 309.648 76.3844 309.648C75.2778 309.648 74.5823 310.186 74.5823 311.6V322.29ZM71.1052 311.797C71.1052 308.63 72.9703 306.82 76.3844 306.82C79.798 306.82 81.6631 308.63 81.6631 311.797V322.092C81.6631 325.259 79.798 327.069 76.3844 327.069C72.9703 327.069 71.1052 325.259 71.1052 322.092V311.797Z" fill="#142344"/>
<path d="M88.3325 306.82C91.7146 306.82 93.4533 308.63 93.4533 311.798V312.42H90.1658V311.599C90.1658 310.185 89.5338 309.648 88.4274 309.648C87.321 309.648 86.6885 310.185 86.6885 311.599C86.6885 315.672 93.4847 316.435 93.4847 322.092C93.4847 325.259 91.7146 327.069 88.3008 327.069C84.8872 327.069 83.1168 325.259 83.1168 322.092V320.875H86.4045V322.29C86.4045 323.704 87.1 324.213 88.2061 324.213C89.3125 324.213 90.0077 323.704 90.0077 322.29C90.0077 318.217 83.2117 317.454 83.2117 311.798C83.2117 308.63 84.9504 306.82 88.3325 306.82Z" fill="#142344"/>
<path d="M103.347 315.389H108.12V318.217H103.347V324.015H109.352V326.843H99.8698V307.046H109.352V309.874H103.347V315.389Z" fill="#142344"/>
<path d="M115.895 307.046H119.372V326.843H115.895V307.046Z" fill="#142344"/>
<path d="M124.746 312.504V326.843H121.616V307.046H125.979L129.55 318.896V307.046H132.648V326.843H129.076L124.746 312.504Z" fill="#142344"/>
<path d="M139.57 306.82C142.952 306.82 144.691 308.63 144.691 311.798V312.42H141.403V311.599C141.403 310.185 140.771 309.648 139.665 309.648C138.559 309.648 137.926 310.185 137.926 311.599C137.926 315.672 144.722 316.435 144.722 322.092C144.722 325.259 142.952 327.069 139.538 327.069C136.125 327.069 134.355 325.259 134.355 322.092V320.875H137.642V322.29C137.642 323.704 138.337 324.213 139.443 324.213C140.55 324.213 141.245 323.704 141.245 322.29C141.245 318.217 134.449 317.454 134.449 311.798C134.449 308.63 136.188 306.82 139.57 306.82Z" fill="#142344"/>
<path d="M145.449 307.046H156.197V309.874H152.561V326.843H149.084V309.874H145.449V307.046Z" fill="#142344"/>
<path d="M159.578 320.564H162.929L161.254 310.553L159.578 320.564ZM167.512 326.843H164.003L163.403 323.251H159.136L158.535 326.843H155.342L158.883 307.046H163.972L167.512 326.843Z" fill="#142344"/>
<path d="M168.871 307.046H172.348V324.015H178.07V326.843H168.871V307.046Z" fill="#142344"/>
<path d="M182.653 320.564H186.003L184.328 310.553L182.653 320.564ZM190.587 326.843H187.078L186.477 323.251H182.21L181.61 326.843H178.417L181.957 307.046H187.046L190.587 326.843Z" fill="#142344"/>
<path d="M202.029 319.462V322.092C202.029 325.033 200.48 326.815 197.54 327.041V327.946C199.089 327.946 199.88 328.285 199.88 329.275C199.88 330.802 198.552 331 196.687 331C194.948 331 193.653 330.661 193.653 329.36V329.077H195.992V329.303C195.992 329.727 196.34 329.869 196.687 329.869C197.225 329.869 197.477 329.671 197.477 329.19C197.477 328.653 197.098 328.455 196.34 328.455H196.023V327.013C193.147 326.758 191.661 325.005 191.661 322.092V311.798C191.661 308.63 193.431 306.82 196.845 306.82C200.259 306.82 202.029 308.63 202.029 311.798V313.721H198.742V311.599C198.742 310.185 198.047 309.648 196.94 309.648C195.834 309.648 195.138 310.185 195.138 311.599V322.29C195.138 323.704 195.834 324.213 196.94 324.213C198.047 324.213 198.742 323.704 198.742 322.29V319.462H202.029Z" fill="#142344"/>
<path d="M207.086 322.29C207.086 323.704 207.782 324.241 208.888 324.241C209.994 324.241 210.69 323.704 210.69 322.29V311.599C210.69 310.186 209.994 309.648 208.888 309.648C207.782 309.648 207.086 310.186 207.086 311.599V322.29ZM211.512 303.03L213.187 304.077C212.586 305.519 211.606 306 210.5 306C209.172 306 208.603 305.293 207.655 305.293C207.086 305.293 206.675 305.406 206.296 306.113L204.621 305.067C205.221 303.624 206.201 303.144 207.308 303.144C208.635 303.144 209.204 303.85 210.152 303.85C210.721 303.85 211.132 303.737 211.512 303.03ZM203.609 311.797C203.609 308.63 205.474 306.82 208.888 306.82C212.302 306.82 214.167 308.63 214.167 311.797V322.091C214.167 325.259 212.302 327.069 208.888 327.069C205.474 327.069 203.609 325.259 203.609 322.091V311.797Z" fill="#142344"/>
<path d="M219.635 315.389H224.408V318.217H219.635V324.015H225.641V326.843H216.158V307.046H225.641V309.874H219.635V315.389Z" fill="#142344"/>
<path d="M232.215 306.82C235.598 306.82 237.336 308.63 237.336 311.798V312.42H234.049V311.599C234.049 310.185 233.417 309.648 232.31 309.648C231.204 309.648 230.572 310.185 230.572 311.599C230.572 315.672 237.368 316.435 237.368 322.092C237.368 325.259 235.598 327.069 232.184 327.069C228.77 327.069 227 325.259 227 322.092V320.875H230.287V322.29C230.287 323.704 230.983 324.213 232.089 324.213C233.195 324.213 233.891 323.704 233.891 322.29C233.891 318.217 227.095 317.454 227.095 311.798C227.095 308.63 228.833 306.82 232.215 306.82Z" fill="#142344"/>
<path d="M211.253 232.12V255.83H216.553C221.607 255.83 224.688 253.844 224.688 247.67V240.06C224.688 234.546 222.593 232.12 217.786 232.12H211.253ZM226.044 298.286C225.305 296.302 224.812 295.089 224.812 288.803V276.673C224.812 269.504 222.1 266.857 215.937 266.857H211.253V298.286H197.695V221.092H218.156C232.207 221.092 238.246 226.937 238.246 238.846V244.913C238.246 252.852 235.412 258.035 229.372 260.571C236.151 263.107 238.37 268.953 238.37 277.003V288.913C238.37 292.663 238.493 295.42 239.848 298.286H226.044Z" fill="#142344" stroke="#142344" stroke-width="0.0762" stroke-miterlimit="22.9256"/>
<path d="M62.7563 280.532C62.7563 286.046 65.468 288.141 69.7816 288.141C74.096 288.141 76.8079 286.046 76.8079 280.532V238.847C76.8079 233.334 74.096 231.237 69.7816 231.237C65.468 231.237 62.7563 233.334 62.7563 238.847V280.532ZM49.1976 239.619C49.1976 227.268 56.4707 220.21 69.7816 220.21C83.094 220.21 90.3664 227.268 90.3664 239.619V279.76C90.3664 292.111 83.094 299.169 69.7816 299.169C56.4707 299.169 49.1976 292.111 49.1976 279.76V239.619Z" fill="#142344" stroke="#142344" stroke-width="0.0762" stroke-miterlimit="22.9256"/>
<path d="M22.4893 220.21C35.6773 220.21 42.4578 227.268 42.4578 239.619V242.045H29.638V238.847C29.638 233.334 27.1742 231.238 22.8598 231.238C18.5454 231.238 16.0795 233.334 16.0795 238.847C16.0795 254.727 42.5802 257.704 42.5802 279.76C42.5802 292.11 35.6773 299.168 22.3659 299.168C9.055 299.168 2.1516 292.11 2.1516 279.76V275.017H14.9712V280.532C14.9712 286.047 17.6831 288.03 21.9965 288.03C26.3109 288.03 29.0218 286.047 29.0218 280.532C29.0218 264.652 2.52206 261.675 2.52206 239.619C2.52206 227.268 9.3013 220.21 22.4893 220.21Z" fill="#142344" stroke="#142344" stroke-width="0.0762" stroke-miterlimit="22.9256"/>
<path d="M161.091 273.804H174.156L167.624 234.766L161.091 273.804ZM192.028 298.286H178.347L176.004 284.281H159.365L157.024 298.286H144.574L158.379 221.092H178.224L192.028 298.286Z" fill="#142344" stroke="#142344" stroke-width="0.0762" stroke-miterlimit="22.9256"/>
<path d="M101.982 221.092H115.54V287.259H137.849V298.286H101.982V221.092Z" fill="#142344" stroke="#142344" stroke-width="0.0762" stroke-miterlimit="22.9256"/>
<path d="M124.753 3.92138H162.958L207.041 141.232V3.92138H241V208.427H204.429L158.713 77.5434V208.427H124.753V3.92138ZM71.8583 176.874C75.5576 173.368 77.4097 168.402 77.4097 161.975V50.3733C77.4097 43.9461 75.5576 38.9793 71.8583 35.4734C68.1544 31.9676 63.0419 30.2147 56.5112 30.2147C49.9805 30.2147 44.863 31.9676 41.1638 35.4734C37.4597 38.9793 35.6129 43.9461 35.6129 50.3733V161.975C35.6129 168.402 37.4597 173.368 41.1638 176.874C44.863 180.38 49.9805 182.133 56.5112 182.133C63.0419 182.133 68.1544 180.38 71.8583 176.874ZM16.3473 197.763C6.11229 188.707 1 176.779 1 161.975V50.3733C1 35.574 6.11229 23.6415 16.3473 14.5848C26.5772 5.5279 39.965 1 56.5112 1C73.0523 1 86.4404 5.5279 96.675 14.5848C106.905 23.6415 112.022 35.574 112.022 50.3733V161.975C112.022 176.779 106.905 188.707 96.675 197.763C86.4404 206.82 73.0523 211.348 56.5112 211.348C39.965 211.348 26.5772 206.82 16.3473 197.763Z" fill="#142344" stroke="#142344" stroke-width="0.0762" stroke-miterlimit="22.9256"/>
</svg>
