<svg width="61" height="80" viewBox="0 0 61 80" fill="none" xmlns="http://www.w3.org/2000/svg">
<g filter="url(#filter0_di_46_3635)">
<path d="M6.51078 66.6358V68.0601H6.86007C7.09512 68.0601 7.22274 67.9639 7.22274 67.6634V67.0324C7.22274 66.7319 7.09512 66.6358 6.86007 66.6358H6.51078ZM7.96161 67.0745V67.6214C7.96161 68.2945 7.59894 68.6611 6.86007 68.6611H6.51078V70.2416H5.77185V66.0348H6.86007C7.59894 66.0348 7.96161 66.4014 7.96161 67.0745Z" fill="white"/>
<path d="M9.02281 66.6358V67.9279H9.31163C9.58703 67.9279 9.75499 67.8197 9.75499 67.4832V67.0685C9.75499 66.768 9.64081 66.6358 9.37879 66.6358H9.02281ZM9.82883 70.2416C9.78859 70.1334 9.76168 70.0674 9.76168 69.7248V69.0637C9.76168 68.6731 9.61395 68.5288 9.27809 68.5288H9.02281V70.2416H8.28394V66.0348H9.39901C10.1647 66.0348 10.4938 66.3533 10.4938 67.0023V67.3329C10.4938 67.7656 10.3393 68.0481 10.0102 68.1863C10.3796 68.3245 10.5006 68.6431 10.5006 69.0818V69.7308C10.5006 69.9351 10.5073 70.0854 10.5811 70.2416H9.82883Z" fill="white"/>
<path d="M11.6088 69.274C11.6088 69.5745 11.7566 69.6887 11.9916 69.6887C12.2267 69.6887 12.3745 69.5745 12.3745 69.274V67.0024C12.3745 66.7019 12.2267 66.5876 11.9916 66.5876C11.7566 66.5876 11.6088 66.7019 11.6088 67.0024V69.274ZM10.8699 67.0444C10.8699 66.3713 11.2662 65.9867 11.9916 65.9867C12.7171 65.9867 13.1134 66.3713 13.1134 67.0444V69.2319C13.1134 69.905 12.7171 70.2896 11.9916 70.2896C11.2662 70.2896 10.8699 69.905 10.8699 69.2319V67.0444Z" fill="white"/>
<path d="M13.3351 69.6406C13.4157 69.6467 13.5097 69.6467 13.5903 69.6467C13.8254 69.6467 14.0135 69.5685 14.0135 69.244V66.0349H14.7524V69.1959C14.7524 70.0373 14.2485 70.2536 13.6911 70.2536C13.5568 70.2536 13.456 70.2536 13.3351 70.2416V69.6406Z" fill="white"/>
<path d="M15.9411 67.8077H16.9554V68.4087H15.9411V69.6406H17.2174V70.2416H15.2023V66.0348H17.2174V66.6358H15.9411V67.8077Z" fill="white"/>
<path d="M17.4055 66.0349H19.6893V66.6358H18.9168V70.2416H18.178V66.6358H17.4055V66.0349Z" fill="white"/>
<path d="M20.6362 69.274C20.6362 69.5745 20.784 69.6887 21.0192 69.6887C21.2542 69.6887 21.402 69.5745 21.402 69.274V67.0024C21.402 66.7019 21.2542 66.5876 21.0192 66.5876C20.784 66.5876 20.6362 66.7019 20.6362 67.0024V69.274ZM19.8973 67.0444C19.8973 66.3713 20.2937 65.9867 21.0192 65.9867C21.7445 65.9867 22.1409 66.3713 22.1409 67.0444V69.2319C22.1409 69.905 21.7445 70.2896 21.0192 70.2896C20.2937 70.2896 19.8973 69.905 19.8973 69.2319V67.0444Z" fill="white"/>
<path d="M23.5582 65.9867C24.2769 65.9867 24.6463 66.3713 24.6463 67.0444V67.1766H23.9478V67.0023C23.9478 66.7019 23.8135 66.5877 23.5783 66.5877C23.3432 66.5877 23.2088 66.7019 23.2088 67.0023C23.2088 67.8677 24.653 68.03 24.653 69.232C24.653 69.905 24.2769 70.2896 23.5514 70.2896C22.826 70.2896 22.4498 69.905 22.4498 69.232V68.9735H23.1485V69.274C23.1485 69.5745 23.2963 69.6826 23.5313 69.6826C23.7664 69.6826 23.9141 69.5745 23.9141 69.274C23.9141 68.4086 22.47 68.2464 22.47 67.0444C22.47 66.3713 22.8395 65.9867 23.5582 65.9867Z" fill="white"/>
<path d="M26.7487 67.8077H27.763V68.4087H26.7487V69.6406H28.025V70.2416H26.0099V66.0348H28.025V66.6358H26.7487V67.8077Z" fill="white"/>
<path d="M29.4153 66.0348H30.1542V70.2416H29.4153V66.0348Z" fill="white"/>
<path d="M31.2959 67.1947V70.2416H30.6309V66.0348H31.5579L32.3168 68.5529V66.0348H32.9751V70.2416H32.2161L31.2959 67.1947Z" fill="white"/>
<path d="M34.4462 65.9867C35.1648 65.9867 35.5343 66.3713 35.5343 67.0444V67.1766H34.8357V67.0023C34.8357 66.7019 34.7014 66.5877 34.4663 66.5877C34.2312 66.5877 34.0968 66.7019 34.0968 67.0023C34.0968 67.8677 35.541 68.03 35.541 69.232C35.541 69.905 35.1648 70.2896 34.4394 70.2896C33.714 70.2896 33.3379 69.905 33.3379 69.232V68.9735H34.0364V69.274C34.0364 69.5745 34.1842 69.6826 34.4193 69.6826C34.6544 69.6826 34.8022 69.5745 34.8022 69.274C34.8022 68.4086 33.358 68.2464 33.358 67.0444C33.358 66.3713 33.7275 65.9867 34.4462 65.9867Z" fill="white"/>
<path d="M35.6953 66.0349H37.9792V66.6358H37.2067V70.2416H36.4678V66.6358H35.6953V66.0349Z" fill="white"/>
<path d="M38.6978 68.9074H39.4098L39.0539 66.78L38.6978 68.9074ZM40.3838 70.2416H39.6382L39.5105 69.4783H38.6038L38.4762 70.2416H37.7977L38.55 66.0348H39.6315L40.3838 70.2416Z" fill="white"/>
<path d="M40.6727 66.0349H41.4116V69.6406H42.6273V70.2416H40.6727V66.0349Z" fill="white"/>
<path d="M43.6012 68.9074H44.3132L43.9571 66.78L43.6012 68.9074ZM45.2871 70.2416H44.5415L44.4139 69.4783H43.5071L43.3795 70.2416H42.701L43.4534 66.0348H44.5348L45.2871 70.2416Z" fill="white"/>
<path d="M47.7187 68.673V69.232C47.7187 69.8569 47.3896 70.2356 46.7648 70.2837V70.4759C47.094 70.4759 47.2619 70.5481 47.2619 70.7584C47.2619 71.0829 46.9798 71.125 46.5836 71.125C46.214 71.125 45.9387 71.0529 45.9387 70.7764V70.7163H46.4358V70.7644C46.4358 70.8545 46.5097 70.8846 46.5836 70.8846C46.6977 70.8846 46.7515 70.8425 46.7515 70.7404C46.7515 70.6262 46.6708 70.5841 46.5097 70.5841H46.4424V70.2776C45.8312 70.2236 45.5155 69.851 45.5155 69.232V67.0444C45.5155 66.3713 45.8917 65.9867 46.617 65.9867C47.3426 65.9867 47.7187 66.3713 47.7187 67.0444V67.4531H47.0201V67.0023C47.0201 66.7019 46.8724 66.5877 46.6373 66.5877C46.4022 66.5877 46.2544 66.7019 46.2544 67.0023V69.274C46.2544 69.5745 46.4022 69.6826 46.6373 69.6826C46.8724 69.6826 47.0201 69.5745 47.0201 69.274V68.673H47.7187Z" fill="white"/>
<path d="M48.7933 69.2741C48.7933 69.5745 48.9411 69.6887 49.1762 69.6887C49.4113 69.6887 49.5591 69.5745 49.5591 69.2741V67.0024C49.5591 66.7019 49.4113 66.5877 49.1762 66.5877C48.9411 66.5877 48.7933 66.7019 48.7933 67.0024V69.2741ZM49.7337 65.1815L50.0897 65.4038C49.9621 65.7103 49.7538 65.8124 49.5188 65.8124C49.2366 65.8124 49.1157 65.6622 48.9142 65.6622C48.7933 65.6622 48.706 65.6862 48.6254 65.8365L48.2694 65.6141C48.397 65.3076 48.6053 65.2055 48.8403 65.2055C49.1224 65.2055 49.2433 65.3557 49.4449 65.3557C49.5658 65.3557 49.6531 65.3316 49.7337 65.1815ZM48.0544 67.0444C48.0544 66.3713 48.4508 65.9867 49.1762 65.9867C49.9016 65.9867 50.2979 66.3713 50.2979 67.0444V69.2319C50.2979 69.905 49.9016 70.2897 49.1762 70.2897C48.4508 70.2897 48.0544 69.905 48.0544 69.2319V67.0444Z" fill="white"/>
<path d="M51.46 67.8077H52.4743V68.4087H51.46V69.6406H52.7362V70.2416H50.7211V66.0348H52.7362V66.6358H51.46V67.8077Z" fill="white"/>
<path d="M54.1332 65.9867C54.8519 65.9867 55.2214 66.3713 55.2214 67.0444V67.1766H54.5228V67.0023C54.5228 66.7019 54.3885 66.5877 54.1534 66.5877C53.9183 66.5877 53.7839 66.7019 53.7839 67.0023C53.7839 67.8677 55.2281 68.03 55.2281 69.232C55.2281 69.905 54.8519 70.2896 54.1265 70.2896C53.4011 70.2896 53.0249 69.905 53.0249 69.232V68.9735H53.7235V69.274C53.7235 69.5745 53.8713 69.6826 54.1063 69.6826C54.3414 69.6826 54.4892 69.5745 54.4892 69.274C54.4892 68.4086 53.0451 68.2464 53.0451 67.0444C53.0451 66.3713 53.4145 65.9867 54.1332 65.9867Z" fill="white"/>
<path d="M49.6788 50.113V55.1513H50.8051C51.879 55.1513 52.5338 54.7294 52.5338 53.4173V51.8003C52.5338 50.6286 52.0885 50.113 51.067 50.113H49.6788ZM52.8218 64.1733C52.6648 63.7516 52.56 63.4939 52.56 62.1581V59.5804C52.56 58.0572 51.9838 57.4946 50.6741 57.4946H49.6788V64.1733H46.7976V47.7696H51.1457C54.1315 47.7696 55.4148 49.0117 55.4148 51.5424V52.8314C55.4148 54.5186 54.8125 55.62 53.5291 56.1589C54.9695 56.6978 55.441 57.9401 55.441 59.6507V62.1815C55.441 62.9783 55.4673 63.5642 55.7553 64.1733H52.8218Z" fill="white" stroke="white" stroke-width="0.0762" stroke-miterlimit="22.9256"/>
<path d="M18.1233 60.4006C18.1233 61.5723 18.6995 62.0175 19.6162 62.0175C20.533 62.0175 21.1093 61.5723 21.1093 60.4006V51.5425C21.1093 50.371 20.533 49.9255 19.6162 49.9255C18.6995 49.9255 18.1233 50.371 18.1233 51.5425V60.4006ZM15.2421 51.7065C15.2421 49.0819 16.7876 47.5822 19.6162 47.5822C22.4451 47.5822 23.9904 49.0819 23.9904 51.7065V60.2364C23.9904 62.861 22.4451 64.3609 19.6162 64.3609C16.7876 64.3609 15.2421 62.861 15.2421 60.2364V51.7065Z" fill="white" stroke="white" stroke-width="0.0762" stroke-miterlimit="22.9256"/>
<path d="M9.5664 47.5821C12.3689 47.5821 13.8097 49.0818 13.8097 51.7066V52.222H11.0855V51.5424C11.0855 50.3709 10.5619 49.9256 9.64512 49.9256C8.72831 49.9256 8.20432 50.3709 8.20432 51.5424C8.20432 54.917 13.8357 55.5496 13.8357 60.2365C13.8357 62.861 12.3689 64.3608 9.54017 64.3608C6.7116 64.3608 5.24463 62.861 5.24463 60.2365V59.2287H7.96879V60.4005C7.96879 61.5724 8.54506 61.9939 9.46166 61.9939C10.3785 61.9939 10.9545 61.5724 10.9545 60.4005C10.9545 57.026 5.32335 56.3933 5.32335 51.7066C5.32335 49.0818 6.76394 47.5821 9.5664 47.5821Z" fill="white" stroke="white" stroke-width="0.0762" stroke-miterlimit="22.9256"/>
<path d="M39.0194 58.9709H41.7957L40.4076 50.6754L39.0194 58.9709ZM45.5935 64.1733H42.6862L42.1885 61.1972H38.6527L38.1551 64.1733H35.5095L38.4431 47.7696H42.6602L45.5935 64.1733Z" fill="white" stroke="white" stroke-width="0.0762" stroke-miterlimit="22.9256"/>
<path d="M26.4586 47.7696H29.3398V61.83H34.0804V64.1734H26.4586V47.7696Z" fill="white" stroke="white" stroke-width="0.0762" stroke-miterlimit="22.9256"/>
<path d="M31.2976 1.62079H39.4161L48.7837 30.7993V1.62079H56V45.0782H48.2286L38.514 17.2655V45.0782H31.2976V1.62079ZM20.0574 38.3733C20.8435 37.6283 21.2371 36.5729 21.2371 35.2071V11.4918C21.2371 10.1261 20.8435 9.07059 20.0574 8.3256C19.2703 7.58061 18.1839 7.20812 16.7961 7.20812C15.4084 7.20812 14.3209 7.58061 13.5348 8.3256C12.7477 9.07059 12.3552 10.1261 12.3552 11.4918V35.2071C12.3552 36.5729 12.7477 37.6283 13.5348 38.3733C14.3209 39.1183 15.4084 39.4908 16.7961 39.4908C18.1839 39.4908 19.2703 39.1183 20.0574 38.3733ZM8.26131 42.8122C6.08636 40.8877 5 38.353 5 35.2071V11.4918C5 8.34698 6.08636 5.81132 8.26131 3.88678C10.4351 1.96218 13.2801 1 16.7961 1C20.3111 1 23.1561 1.96218 25.3309 3.88678C27.5048 5.81132 28.5922 8.34698 28.5922 11.4918V35.2071C28.5922 38.353 27.5048 40.8877 25.3309 42.8122C23.1561 44.7367 20.3111 45.699 16.7961 45.699C13.2801 45.699 10.4351 44.7367 8.26131 42.8122Z" fill="white" stroke="#FEFEFE" stroke-width="0.0762" stroke-miterlimit="22.9256"/>
</g>
<defs>
<filter id="filter0_di_46_3635" x="0.961914" y="0.961914" width="59.0762" height="78.163" filterUnits="userSpaceOnUse" color-interpolation-filters="sRGB">
<feFlood flood-opacity="0" result="BackgroundImageFix"/>
<feColorMatrix in="SourceAlpha" type="matrix" values="0 0 0 0 0 0 0 0 0 0 0 0 0 0 0 0 0 0 127 0" result="hardAlpha"/>
<feOffset dy="4"/>
<feGaussianBlur stdDeviation="2"/>
<feComposite in2="hardAlpha" operator="out"/>
<feColorMatrix type="matrix" values="0 0 0 0 0 0 0 0 0 0 0 0 0 0 0 0 0 0 0.25 0"/>
<feBlend mode="normal" in2="BackgroundImageFix" result="effect1_dropShadow_46_3635"/>
<feBlend mode="normal" in="SourceGraphic" in2="effect1_dropShadow_46_3635" result="shape"/>
<feColorMatrix in="SourceAlpha" type="matrix" values="0 0 0 0 0 0 0 0 0 0 0 0 0 0 0 0 0 0 127 0" result="hardAlpha"/>
<feOffset dy="4"/>
<feGaussianBlur stdDeviation="2"/>
<feComposite in2="hardAlpha" operator="arithmetic" k2="-1" k3="1"/>
<feColorMatrix type="matrix" values="0 0 0 0 0 0 0 0 0 0 0 0 0 0 0 0 0 0 0.25 0"/>
<feBlend mode="normal" in2="shape" result="effect2_innerShadow_46_3635"/>
</filter>
</defs>
</svg>
